<?xml version="1.0" standalone="no"?>
<!DOCTYPE svg PUBLIC "-//W3C//DTD SVG 20010904//EN"  "http://www.w3.org/TR/2001/REC-SVG-20010904/DTD/svg10.dtd">
<svg version="1.0" 
    xmlns="http://www.w3.org/2000/svg"  
    width="48.000000pt" 
    height="48.000000pt" 
    viewBox="0 0 48.000000 48.000000"  
    preserveAspectRatio="xMidYMid meet">
    <g transform="translate(0.000000,48.000000) scale(0.100000,-0.100000)" fill="#000000" stroke="none">
        <path d="M0 240 c0 -153 4 -240 10 -240 6 0 10 87 10 240 0 153 -4 240 -10 240 -6 0 -10 -87 -10 -240z"/>
        <path d="M80 240 c0 -153 4 -240 10 -240 6 0 10 87 10 240 0 153 -4 240 -10 240 -6 0 -10 -87 -10 -240z"/>
        <path d="M160 240 c0 -153 4 -240 10 -240 6 0 10 87 10 240 0 153 -4 240 -10 240 -6 0 -10 -87 -10 -240z"/>
        <path d="M240 240 c0 -153 4 -240 10 -240 6 0 10 87 10 240 0 153 -4 240 -10 240 -6 0 -10 -87 -10 -240z"/>
        <path d="M320 240 c0 -153 4 -240 10 -240 6 0 10 87 10 240 0 153 -4 240 -10 240 -6 0 -10 -87 -10 -240z"/>
        <path d="M400 240 c0 -153 4 -240 10 -240 6 0 10 87 10 240 0 153 -4 240 -10 240 -6 0 -10 -87 -10 -240z"/>
    </g>
</svg>